<svg xmlns="http://www.w3.org/2000/svg" width="256" height="256" viewBox="0 0 100 100"><rect width="100" height="100" rx="20" fill="#7d6ee7"></rect><path fill="#fff" d="M25.84 66.06L25.84 66.06Q29.62 66.06 32.09 65.30Q34.57 64.53 35.65 63.81L35.65 63.81L35.65 50.76L24.49 51.93Q19.81 52.38 17.56 54.05Q15.31 55.71 15.31 58.95L15.31 58.95Q15.31 62.37 17.92 64.22Q20.53 66.06 25.84 66.06ZM25.75 27.99L25.75 27.99Q33.58 27.99 38.17 31.50Q42.76 35.01 42.76 42.57L42.76 42.57L42.76 63.90Q42.76 65.88 41.99 66.92Q41.23 67.95 39.70 68.85L39.70 68.85Q37.54 70.11 33.98 71.06Q30.43 72.00 25.84 72.00L25.84 72.00Q17.38 72.00 12.74 68.67Q8.11 65.34 8.11 59.04L8.11 59.04Q8.11 53.10 11.98 50.09Q15.85 47.07 22.87 46.35L22.87 46.35L35.65 45.09L35.65 42.57Q35.65 38.07 32.95 36.00Q30.25 33.93 25.66 33.93L25.66 33.93Q21.88 33.93 18.55 35.01Q15.22 36.09 12.61 37.44L12.61 37.44Q11.89 36.81 11.30 36.00Q10.72 35.19 10.72 34.20L10.72 34.20Q10.72 32.94 11.35 32.13Q11.98 31.32 13.33 30.60L13.33 30.60Q15.76 29.34 18.91 28.67Q22.06 27.99 25.75 27.99ZM84.69 43.65L84.69 43.65Q84.69 38.61 81.86 36.27Q79.03 33.93 74.25 33.93L74.25 33.93Q70.66 33.93 67.87 34.83Q65.08 35.73 63.09 36.90L63.09 36.90L63.09 70.56Q62.65 70.74 61.75 70.97Q60.84 71.19 59.77 71.19L59.77 71.19Q55.90 71.19 55.90 67.95L55.90 67.95L55.90 37.26Q55.90 35.37 56.66 34.16Q57.43 32.94 59.32 31.77L59.32 31.77Q61.66 30.33 65.53 29.16Q69.40 27.99 74.25 27.99L74.25 27.99Q82.44 27.99 87.17 31.68Q91.90 35.37 91.90 43.29L91.90 43.29L91.90 70.56Q91.44 70.74 90.50 70.97Q89.56 71.19 88.56 71.19L88.56 71.19Q84.69 71.19 84.69 67.95L84.69 67.95L84.69 43.65Z"></path></svg>